# xmcd
#
# Track frame offsets:
# 150
# 12594
# 31819
# 44818
# 58158
# 74648
# 89320
# 104432
# 117770
# 127253
# 153985
# 166375
# 180498
# 191341
# 200633
# 211336
#
# Disc length: 2954 seconds
#
# Revision: 1
# Processed by: cddbd v1.5.1PL2 Copyright (c) Steve Scherf et al.
# Submitted via: CedeCatalogueitor 2.6.0.6 http://personales.ya.com/cdcatalogueitor
#
DISCID=ec0b8810
DTITLE=Ray Charles - Voces De Oro
DYEAR=2005
DGENRE=
TTITLE0=Yesterday
TTITLE1=I Can't Stop Loving You
TTITLE2=Unchain My Heart
TTITLE3=Eleanor Rigby
TTITLE4=Georgia On My Mind
TTITLE5=Born To Lose
TTITLE6=Here We Go Again
TTITLE7=Take These Chains From My Heart
TTITLE8=Yes Indeed
TTITLE9=I Gotta Woman
TTITLE10=Honey Honey
TTITLE11=Baby Let Me Hold Your Hand
TTITLE12=I Wonder Who's Kissing Her Now
TTITLE13=All To Myself
TTITLE14=Their Crazy About Me
TTITLE15=Sitting On Top Of The World
EXTD=
EXTT0=
EXTT1=
EXTT2=
EXTT3=
EXTT4=
EXTT5=
EXTT6=
EXTT7=
EXTT8=
EXTT9=
EXTT10=
EXTT11=
EXTT12=
EXTT13=
EXTT14=
EXTT15=
PLAYORDER=
